/* XPM */
static char *_453_2e348b6ecca93d442268a09d1eb40d329060617c8148bb90e2bc337e426f3854[] = {
/* columns rows colors chars-per-pixel */
"32 32 187 2 ",
"   c #190700",
".  c #1C0900",
"X  c #170F0C",
"o  c #161000",
"O  c #1F1200",
"+  c #140F1B",
"@  c #210700",
"#  c #2D0700",
"$  c #230D00",
"%  c #2A0C00",
"&  c #360900",
"*  c #231200",
"=  c #2C1300",
"-  c #2B1800",
";  c #341200",
":  c #201418",
">  c #351C1D",
",  c #2A261D",
"<  c #3A2A1D",
"1  c #1F1F3B",
"2  c #2F1E2E",
"3  c #1B2236",
"4  c #1D2C35",
"5  c #1E253B",
"6  c #1D2C3D",
"7  c #1F323B",
"8  c #1C3134",
"9  c #25242B",
"0  c #2C222D",
"q  c #2C2A2F",
"w  c #342523",
"e  c #3C2A26",
"r  c #362B2C",
"t  c #3C2A2D",
"y  c #342428",
"u  c #232435",
"i  c #2A2735",
"p  c #232A36",
"a  c #2A2C35",
"s  c #23263C",
"d  c #2B253C",
"f  c #232B3C",
"g  c #2B2B3D",
"h  c #332631",
"j  c #342934",
"k  c #3B2A33",
"l  c #34263A",
"z  c #332B3C",
"x  c #392D3A",
"c  c #24323B",
"v  c #2A313D",
"b  c #253235",
"n  c #353335",
"m  c #30303A",
"M  c #432421",
"N  c #331E4A",
"B  c #1D2544",
"V  c #1D2B43",
"C  c #1E294B",
"Z  c #152E42",
"A  c #1D3142",
"S  c #232644",
"D  c #2C2442",
"F  c #242B43",
"G  c #2A2B44",
"H  c #23264A",
"J  c #29264A",
"K  c #252B4A",
"L  c #2A2C4B",
"P  c #322743",
"I  c #322B43",
"U  c #3D2A40",
"Y  c #332C4B",
"T  c #253143",
"R  c #2A3144",
"E  c #25314A",
"W  c #2B314B",
"Q  c #333141",
"!  c #31334B",
"~  c #3A3948",
"^  c #272B51",
"/  c #292D52",
"(  c #2A2450",
")  c #382751",
"_  c #2B3353",
"`  c #233154",
"'  c #3B3A57",
"]  c #3B3D5C",
"[  c #333957",
"{  c #343E61",
"}  c #423E59",
"|  c #37434F",
" . c #36414A",
".. c #2E4054",
"X. c #3C4556",
"o. c #3C435C",
"O. c #3C4B5B",
"+. c #3A4557",
"@. c #3D4463",
"#. c #3A4A63",
"$. c #3B4568",
"%. c #4C404E",
"&. c #58474F",
"*. c #514547",
"=. c #444256",
"-. c #44475B",
";. c #554A54",
":. c #424562",
">. c #424A66",
",. c #4B4968",
"<. c #545162",
"1. c #5B617C",
"2. c #5A697D",
"3. c #616A7B",
"4. c #62647D",
"5. c #BB780F",
"6. c #BA791B",
"7. c #AC7E30",
"8. c #B47E34",
"9. c #CF7E00",
"0. c #D47C00",
"q. c #C27D16",
"w. c #BF801F",
"e. c #B3842D",
"r. c #A7803B",
"t. c #BA8133",
"y. c #C48900",
"u. c #D68500",
"i. c #C48219",
"p. c #F79C0F",
"a. c #F99E11",
"s. c #F69A13",
"d. c #DBAC00",
"f. c #D9BF00",
"g. c #DAB605",
"h. c #D9A41B",
"j. c #D2B116",
"k. c #E8AA00",
"l. c #F4A502",
"z. c #FDA50B",
"x. c #F5AB04",
"c. c #E4B500",
"v. c #E9B000",
"b. c #F3B105",
"n. c #ECAA11",
"m. c #F5A312",
"M. c #FAA61A",
"N. c #CF8A23",
"B. c #E59E28",
"V. c #E4A725",
"C. c #F4AB20",
"Z. c #E1A533",
"A. c #FFEF1E",
"S. c #FFF21E",
"D. c #FFDE2C",
"F. c #FFE626",
"G. c #FFE739",
"H. c #FFE635",
"J. c #AE854A",
"K. c #BCA548",
"L. c #C6AB56",
"P. c #D8A748",
"I. c #FFED4D",
"U. c #FFE64A",
"Y. c #FFE650",
"T. c #FFDF71",
"R. c #FFEA68",
"E. c #FFFF77",
"W. c #605F87",
"Q. c #5C6988",
"!. c #666A87",
"~. c #657287",
"^. c #6F6D92",
"/. c #949AB6",
"(. c #959BB7",
"). c #8897AA",
"_. c #FFFF82",
"`. c #FFFF8A",
"'. c #FFE399",
"]. c #FFFD98",
"[. c #FEDFA6",
"{. c #FFFFA6",
"}. c #FFFECA",
"|. c #FFFBC5",
" X c #FFFEDD",
".X c #FFF8EE",
"XX c #FFF8E4",
/* pixels */
"H ^ K o.G g F f F +.R 6 f O.5 L K / C V p R o.G z k t t g G K V ",
"_ B o.F G G 5 L +.2.V 5 o.R L F J H _ 5 G =.s L z l t k G F K F ",
"K ' W F S W S K ^.5 K >.S S _ J F F B E =.d I d G z j l f F F f ",
"G 5 E G G ' L L >.F S S [ V ] S v f K @.I d i g G g P g G G f g ",
"5 R 5 L -.! S ] L F E s S :.L f c p #.K D l l l G G F G V 6 g l ",
"c T T o.J S ,.L G f f W o.F S L p | K K D P P P G F V A V G z l ",
"T 3 o.K S K -.s f v f | R f F G R T T p ! P D L K S F V F G l z ",
"f E S J L G g g c 4 X.T 5 T f T V 5 G R d G ( K F V G F S D g z ",
"F F K K L S g f b | f E S V F T R s <.g G J #.#.A T f D P Y g g ",
"5 E L S F L s f 3.R V E K S G p 9 n 0 z G B F 6 T 6 S P Y P f f ",
"L F H K L L +.3.F V / ^ H ! + X *   e i 4.>.5 p p f L L D d g f ",
"5 E S H J 1.~.F K K H J s + .XXX[.|.* w u G c n m G L J S g v f ",
"R F K _ ] (.f f F F Y P : XX}.L.].P.J.* n f 9 j %.P H K W f g s ",
"5 R V @.(.F f R G G d y   }.K.`.h.V.e.% < h x ;.U z K B G 5 T f ",
"T F E ] B E 5 f u Q ;.* }.L.E.I.G.n.B.e.; k 0 Q i g Y S P f T A ",
"f f O.V E F O.f G ;.h . '._.g.F.y.k.C.6.% M l i g p F J =.E V Z ",
"F G R 6 Z ~.5 g g i l $ {.j.A.S.y.m.m.6.= q a f g G F /.S F V V ",
"F f R f Q.#.G g g g P * T.d.f.A.u.M.m.i.. a v p D s (.f F F S K ",
"L f 5 Q.{ K W G F f d . R.g.d.F.0.s.a.q.= s S / S ,.F f F R W B ",
"E F S ,.C K S F F L I * U.c.v.H.u.a.a.N.@ L K J L H 5 R T 3 :.K ",
"6 F o.3 ! J S L 6 4 a O Y.c.l.D.0.z.m.5.@ Q F H _ 5 R 6 G O.K F ",
"V E o.L S G L L 7 7 b * Y.k.x.0.u.l.M.i.= i 5 W 5 W f G o.F F J ",
"` { K S L L f 6 8 8 | o R.g.b.x.x.m.B.8.  f c f F 5 W $.B o.F g ",
"C _ S G J J u v b 7 R , = R.h.V.V.Z.8.& r f c 6 A K @.K @.G G s ",
"R 5 f f G D F T V A _ G y % 7.e.7.J.& M f A 6 T E Q.$./ S L 5 g ",
"p T g W g F F V K B / ( ,.2 % = ; # > U L 6 ~.).Q.C K J G 1 ! f ",
"p R S L S K c 6 K H W.^.S i k , > t U d V 2.O.V C ^ H S f R 5 :.",
"F f S K ^ K 7 A K !.Y 1 L G p x Q d Y F 7 O.F 5 ^ S d z Q G :.K ",
"f p E K F E 6 A 1.G z g F f g i i G F 3 b  .R I F g ;.h i o.L H ",
"p R L 5 3 R T A W s g g f f x x f R T T X.g d D l j r t =.G K H ",
"K K K S ! F ..A 5 !.D S g m ;.l F K V @.S } N N l *.w t d _ F F ",
"W B K E 1.A #.6 4.G ) D Q a M k L C $.C :.D N } x e M t P S F f "
};
