/* XPM */
static char *_9410_b8b4d6fd91c283721bed5448a5c90a998ecc7f3ed0bb2c85c3a553fc9f8835bf[] = {
/* columns rows colors chars-per-pixel */
"32 32 196 2 ",
"   c #160400",
".  c #160A00",
"X  c #1E0F06",
"o  c #141600",
"O  c #1D1202",
"+  c #0E1108",
"@  c #240D00",
"#  c #2B0A00",
"$  c #310B00",
"%  c #241201",
"&  c #2B1400",
"*  c #251900",
"=  c #291900",
"-  c #3F1100",
";  c #331D19",
":  c #2B2E19",
">  c #3D2C1F",
",  c #362E17",
"<  c #1B1F3A",
"1  c #2E1B2F",
"2  c #221E3E",
"3  c #1C2536",
"4  c #1C2C35",
"5  c #1D243B",
"6  c #172B3B",
"7  c #1D2B3C",
"8  c #16213D",
"9  c #1E313B",
"0  c #2B272C",
"q  c #252C2C",
"w  c #2C2C2C",
"e  c #322C22",
"r  c #39262B",
"t  c #3C292B",
"y  c #39252A",
"u  c #293427",
"i  c #373121",
"p  c #252734",
"a  c #2C2435",
"s  c #232C35",
"d  c #2C2A34",
"f  c #23253B",
"g  c #2B253C",
"h  c #232B3D",
"j  c #2B2B3C",
"k  c #3A2734",
"l  c #342A34",
"z  c #3B2A33",
"x  c #33293A",
"c  c #392A3B",
"v  c #372536",
"b  c #24323C",
"n  c #2D313D",
"m  c #34323A",
"M  c #402722",
"N  c #42272F",
"B  c #432635",
"V  c #4A2F34",
"C  c #211F4E",
"Z  c #1D2644",
"A  c #1D2B43",
"S  c #1C2749",
"D  c #1E2C4B",
"F  c #15274F",
"G  c #1E3044",
"H  c #1E2C53",
"J  c #1D2553",
"K  c #242644",
"L  c #2A2444",
"P  c #242B43",
"I  c #2B2B43",
"U  c #24254A",
"Y  c #2B264B",
"T  c #242C4A",
"R  c #2B2C4A",
"E  c #322C43",
"W  c #32254E",
"Q  c #312B4B",
"!  c #362A47",
"~  c #243243",
"^  c #2A3145",
"/  c #24314B",
"(  c #2B324B",
")  c #343242",
"_  c #31364A",
"`  c #252752",
"'  c #252D52",
"]  c #2B2D53",
"[  c #27295A",
"{  c #322E51",
"}  c #293252",
"|  c #283955",
" . c #323352",
".. c #3A3A5C",
"X. c #363D56",
"o. c #2E3E60",
"O. c #3D3F68",
"+. c #533E43",
"@. c #443C59",
"#. c #413F65",
"$. c #364457",
"%. c #3F4256",
"&. c #3C435C",
"*. c #374A5B",
"=. c #3B4A5B",
"-. c #35465D",
";. c #3C4561",
":. c #3A4664",
">. c #42445D",
",. c #4B4858",
"<. c #5B4554",
"1. c #564347",
"2. c #644B5E",
"3. c #424363",
"4. c #4C4C6B",
"5. c #42496B",
"6. c #455062",
"7. c #5D6577",
"8. c #626A7F",
"9. c #746D7F",
"0. c #B57C2B",
"q. c #BA7A20",
"w. c #AB7C36",
"e. c #A67C4C",
"r. c #B48228",
"t. c #BE8434",
"y. c #BC843A",
"u. c #C98100",
"i. c #F69F05",
"p. c #F19F16",
"a. c #F69E19",
"s. c #DEB100",
"d. c #ECA400",
"f. c #E3AB00",
"g. c #EBAD00",
"h. c #E7AE0D",
"j. c #E7A300",
"k. c #F4A601",
"l. c #FCA400",
"z. c #F7A903",
"x. c #E9B708",
"c. c #F4B200",
"v. c #E7A616",
"b. c #F2A61A",
"n. c #F8A314",
"m. c #EE9E23",
"M. c #E79E2B",
"N. c #CAB028",
"B. c #D7A837",
"V. c #E5A32B",
"C. c #E9A325",
"Z. c #F0A62B",
"A. c #EBA432",
"S. c #EDA338",
"D. c #FFE41F",
"F. c #FFDC22",
"G. c #FFE32E",
"H. c #AA8741",
"J. c #B98440",
"K. c #988364",
"L. c #DBA849",
"P. c #CEAA54",
"I. c #D6AA55",
"U. c #E9A845",
"Y. c #D2A867",
"T. c #FFE943",
"R. c #FFE44E",
"E. c #FFE94E",
"W. c #FFEB57",
"Q. c #FFDB79",
"!. c #FFEA68",
"~. c #FFE774",
"^. c #FFE579",
"/. c #FFEF7C",
"(. c #5A6580",
"). c #5A6C85",
"_. c #636682",
"`. c #636983",
"'. c #646C8C",
"]. c #647585",
"[. c #9898B5",
"{. c #8E98A8",
"}. c #FFEE87",
"|. c #FFF98C",
" X c #FFFB99",
".X c #FFFCAD",
"XX c #FFF5AA",
"oX c #EFE7B8",
"OX c #FFFBB3",
"+X c #FFFCBB",
"@X c #FFF6B2",
"#X c #9A9DC0",
"$X c #FFFBC3",
"%X c #FFF5C4",
"&X c #FFF8D5",
"*X c #FFFCE3",
/* pixels */
"f ^ Y O.` ' 7 9 P ;.R K d ,.5 R U R h 4 h ~ %.g c z N N z g Y H ",
"( 5 ;.T ' T 3 ~ X.8.T K %.h T K T K ( 3 P =.f x x z z z x j T H ",
"P X.^ G A ^ j g 9.2 [ 5.D A ( P h I K ] ;.K R j x x l d h b P ~ ",
"I 7 ~ 9 h X.! E ,.I ` F | 7 &.h b h T #.] U K I I g I j h 7 h h ",
"f ^ 6 P ;. .L @.x j ' F A =.I g ~ h ;.T Y R Y Y T P T P P P j P ",
"R I P ;.T Z 4.I j h H | -.b g E h $.~ P L ! ! I P T D D I Y I g ",
"Q f ;.T A P 3.U s b / o./ A I j P ~ h p ) g d j h P P T P P l z ",
"Y { U P ~ A D T h 6 ;.' A P h I I f j n p j j h d h P P h d l l ",
"C Y I h b 4 G G P %.R I T T 7 h g k <.c f P 3.3.Y I 7 6 h n d d ",
"C I ^ 7 7 9 4 G 8.Q a I L g u : > M z d P P R U Q P 7 b ^ j h j ",
"^ P A P ~ ~ $.8.h s j j g e o * % = u 4 ).-.A A K T I j T K ! g ",
"3 P P S T (.'.P ~ s w e % % ^.W.!.^.o u s P ( I I I E Y U T Q L ",
"~ h R  ...#XD S 7 p , . ~.E.v.v.b.C.B.$ y g ! 1 +.t g U R K I g ",
"6 ^ P 3.[.U D / ~ w % ^.x.f.d.z.i.a.A.y.@ v k 2.V t j A T f I I ",
"/ P I ..U ] A 7 d   ~.h.d.z.c.F.i.M.L.%X*XX l x 1 I ^ 7 G A P I ",
"D A >.P ` T -.b d & R.g.z.i.D.g.u.U.@X%XK.% l g R K P 7 -.^ A h ",
"T T ~ 7 T '.4 b j O R.x.c.G.j.h.r.+X@XY.&X% p P T T j {.b 4 D / ",
"P P ~ ~ `.3.b s d = E.f.k.k.E.B.+X%XI.XXe.@ d T T 5 [.f j h A ' ",
"R L 5 (...D ^ h d . T.c.i.n.Q.+X+XY.}.U.y.# d G 7 6.h h I / T S ",
"R I P 4.A P f h j = T.g.n.S.OXOXH. XZ.A.0.# 0 G G h f I / 8 ;.T ",
"S T ;.<  .U P T g % E.s.B.@X.XP. XV.p.m.t.# d P R K R K / :.^ h ",
"Z ( =.R L K ' T !   /.N..X+XI.|.C.v.b.S.w.@ ) A K  .K T -.D 7 h ",
"~ | Y U ~ ^ Y L g w o $X+XP.|.C.b.b.V.0.# i s A Y L { 3.A -.P j ",
"9 ^ P T 7 ~ f ( j n 4 + oX.XL.A.m.M.t.$ , q 4 ^ Y Y 3.P *.9 P K ",
"~ 7 h p b 9 G ~ h 3 I n + @ H.r.q.y.$ i q 9 6 b I _.>.I 5 ^ Z T ",
"4 ~ j n d P 9 A P ^ P K 4.0 % $ - $ ; m P 6 ].{._.K h I I 3  .T ",
"P I h E f P P G ~ A _._.C Y w e ; N x Y P 7.:.D D T P f g E 5 ;.",
"T P L L Q I P b P 7.P ] [ ` ^ p E a } ' T :.T A T A h x ! I >.P ",
"P P W W Y ] P P `.R R A S } j x P T T Z R X.] ] T I ,.g g >.j s ",
"A / Y L 2 R T P T I f h } K x x f D T T >.Q U L L x c x ,.Y h 4 ",
"A b P 7 _ P X.H S ).n d a c <.c h P T 3.P X.E d z 1.r c K } P ~ ",
"~ 6 b ~ 7.P :.D ).7 p c r B B z j P ;.P >.I d z t M t c Y U G A "
};
