/* XPM */
static char *_0662_0db5cb67bc75643bf7f43a119bb46b4af55e8b4433a17404bca34dec8b2466d7[] = {
/* columns rows colors chars-per-pixel */
"32 32 169 2 ",
"   c #130C00",
".  c #1B0A00",
"X  c #1D1100",
"o  c #1E1800",
"O  c #240600",
"+  c #2B0500",
"@  c #220D00",
"#  c #2C0A00",
"$  c #231300",
"%  c #2D1300",
"&  c #2B1900",
"*  c #341300",
"=  c #291E1C",
"-  c #2E2B1A",
";  c #382915",
":  c #303018",
">  c #2E1D2F",
",  c #2D1F36",
"<  c #211E39",
"1  c #2D1F38",
"2  c #1E2336",
"3  c #1C253B",
"4  c #1D2A3D",
"5  c #2B2E27",
"6  c #272B2A",
"7  c #2D2928",
"8  c #2A2624",
"9  c #342927",
"0  c #3B2C23",
"q  c #34262E",
"w  c #3E2528",
"e  c #392B2C",
"r  c #3A3320",
"t  c #30312B",
"y  c #252535",
"u  c #2B2434",
"i  c #242B35",
"p  c #2B2C36",
"a  c #24263C",
"s  c #2A263C",
"d  c #242A3D",
"f  c #2B2B3C",
"g  c #342636",
"h  c #3D2532",
"j  c #342B35",
"k  c #33263E",
"l  c #3C263B",
"z  c #322B3C",
"x  c #3C2B3B",
"c  c #3D2B37",
"v  c #20313B",
"b  c #2C313E",
"n  c #323230",
"m  c #422438",
"M  c #1A1E43",
"N  c #1D2543",
"B  c #1D2A43",
"V  c #1F254B",
"C  c #1D2C4B",
"Z  c #1F3142",
"A  c #222643",
"S  c #2A2543",
"D  c #242B44",
"F  c #2B2C43",
"G  c #272749",
"H  c #2C2748",
"J  c #242C4A",
"K  c #2A2D4A",
"L  c #3B2541",
"P  c #322C43",
"I  c #3C2F41",
"U  c #332D4A",
"Y  c #253145",
"T  c #2B3244",
"R  c #25314B",
"E  c #2B324B",
"W  c #323145",
"Q  c #31344C",
"!  c #3E3344",
"~  c #262F52",
"^  c #2A2D52",
"/  c #2B3353",
"(  c #323552",
")  c #343D52",
"_  c #3D3B55",
"`  c #343E5B",
"'  c #3B3F5B",
"]  c #343E60",
"[  c #3A4356",
"{  c #37425E",
"}  c #3D435E",
"|  c #394A5A",
" . c #344466",
".. c #3C4565",
"X. c #3D4C62",
"o. c #3E446A",
"O. c #54424E",
"+. c #434356",
"@. c #484250",
"#. c #42465C",
"$. c #41495D",
"%. c #4A4559",
"&. c #544759",
"*. c #554F5D",
"=. c #554754",
"-. c #515159",
";. c #634E55",
":. c #434563",
">. c #4D4C62",
",. c #40446A",
"<. c #444A64",
"1. c #445162",
"2. c #585D7B",
"3. c #5A637D",
"4. c #576C7F",
"5. c #64667F",
"6. c #686578",
"7. c #60687D",
"8. c #BE7E00",
"9. c #B77B1B",
"0. c #C27E00",
"q. c #BF8400",
"w. c #B48C10",
"e. c #BD811F",
"r. c #B68421",
"t. c #BC862B",
"y. c #B4852B",
"u. c #AF873F",
"i. c #B08234",
"p. c #A48827",
"a. c #CB8500",
"s. c #C08B00",
"d. c #CD8800",
"f. c #C38810",
"g. c #DDAE00",
"h. c #DBB000",
"j. c #D8B408",
"k. c #E4AE00",
"l. c #E3AE08",
"z. c #E4B400",
"x. c #E2AF1E",
"c. c #C18221",
"v. c #C58D30",
"b. c #D9AA38",
"n. c #A18458",
"m. c #A48859",
"M. c #C9A253",
"N. c #FFE943",
"B. c #FFED4F",
"V. c #FFF24E",
"C. c #FFE35E",
"Z. c #FFED5B",
"A. c #FFF054",
"S. c #FFE172",
"D. c #FBE97D",
"F. c #5B6782",
"G. c #5F6887",
"H. c #606681",
"J. c #656B85",
"K. c #616A8A",
"L. c #6C6D8A",
"P. c #657086",
"I. c #66708B",
"U. c #949CAA",
"Y. c #919AA3",
"T. c #9197B7",
"R. c #96A1B5",
"E. c #F4E7A1",
"W. c #F8E6A4",
/* pixels */
"S K ~  .C Y A F G } Y D D <.a Y a f A J Z Z [ F L m m j f d F J ",
"U A  .C C Y a F } H.D a ' K J 4 f d E N B | 4 f L m l j f d D J ",
"S _ ~ C A T S F L.4 Y <.A A E F D F A ^ { d b p k k k f D D A f ",
"L A R C D ) P F $.A B 4 Q A { J R A G :.T f a f z P P H D d f f ",
"s T N Z } Q a _ F F R 4 a $.~ V C C :.H s z z f f F J J D d f p ",
"f D J ..J a *.P K A D R [ D B ~ C { F F s P f f A A J J B D b p ",
"P 2 | D A D +.s A K J { Y 4 D J J R f u I s S G F D C D A d f f ",
"A T B D Y F A F K N ..R 4 v d b D d f f a F K D J D D F f f F P ",
"A D D B J B A F N <.V R Y 4 5 t n 7 -.b A K } :.A T A a f P F H ",
"4 J R D B R a F K.J C C 4 6 :     : j i F J A J T a u F U P s F ",
"R A B J J Y { J.A A J J d 5 o E.W.$ 7 G K. .a f a p f F S H F d ",
"B R J A Y 3.L.D E A N J a - $ D.p.* = K V ~ T a b j z f S H P a ",
"E A K E ' R.C B a f F G z ; & Z.w.# 0 L.G A s j @.z i f ^ G s y ",
"A J H ' U.d A E f z P s ! $ C.j.x.y.@ S A T z =.! f f 4 J V d f ",
"T F K } 3 T B A f u %.P > % A.g.q.t.+ k f u c g , s b 4 R B Y i ",
"A A :.G D v } f p -.s z j $ N.z.d.e.# k b W u k U s 4 v ..R d d ",
"A J F S A J.i b z s F G s X A.g.a.c.@ f 4 J D G F d i Y.F B B Y ",
"J F E G G.X.d v s Q 4 R T X B.z.d.9.$ f J C E A B 4 U.i F J B C ",
"R A a H.{ C Y d U < D a y . Z.k.0.v.. s A / 3 T B 1.d a J K Y 4 ",
"E D d >.B C 4 D A Q T F W . C.l.8.y.$ y A K F d v D 2 T ^ M } Y ",
"4 D +.2 / C B Y H A F 2 6.$ S.s.f.i.$ W K K y a Y 4 J A ^ ,.K A ",
"a E +.D B C R C K a d #.f ; * b.r.+ ; < A U s T 4 / A ~ ] ^ A f ",
"Y ) f a R R C B A E [ T a 9 * M.u.% 8 T K A f d v B R o.V o.A f ",
"B E d Y A J N R F A Y 4 J u @ m.n.@ j d H K s D C B ..C o.F T a ",
"R B D 4 F D D F A F 4 R R D 9 . . e i E A A E A J F.} F B R 3 d ",
"B R F T A F D a T a E B ] K y j q j 2 T K K 3.T.G.D A Y Y 3 Q D ",
"B R B T a A F f F a F.F.~ ~ a f f s E N K H...E C J d a i Y 3 +.",
"C B B D Y d f b 2 F.J J / V A F H Q 3 4 K } D A K s u z T Y X.F ",
"Y A R F D E d f P.Y J J A U P s H A J R 3 :.K D s k &.g u #.D F ",
"d T J A 3 K Y 4 3 Z N G P , j z s F Y d { 4 D a p z x l @.d D A ",
"i f A A / Z [ 4 Z F.^ S , c ;.e k A a | E <.a b z O.w l u E A E ",
"b 2 G ^ F.Z X.4 F.N ^ H x h w h j d [ Y [ d d f j e m l k a F A "
};
