/* XPM */
static char *_0678_5b9ad84839474207e74b0ce0d6b69be0da5a517fe5c0d465a6f4149e2a57ce77[] = {
/* columns rows colors chars-per-pixel */
"32 32 204 2 ",
"   c #1B0900",
".  c #1D0200",
"X  c #1C1501",
"o  c #1D1900",
"O  c #151507",
"+  c #190E14",
"@  c #151412",
"#  c #240701",
"$  c #250D00",
"%  c #2B0A00",
"&  c #2E0600",
"*  c #320E00",
"=  c #390600",
"-  c #241200",
";  c #291000",
":  c #211800",
">  c #2E2C1F",
",  c #32251F",
"<  c #24311F",
"1  c #39301F",
"2  c #1B1E3F",
"3  c #231E3C",
"4  c #1D272A",
"5  c #1C2637",
"6  c #1D2E36",
"7  c #1C253C",
"8  c #1D2B3C",
"9  c #152E36",
"0  c #1E303C",
"q  c #1C3234",
"w  c #2D2D22",
"e  c #2C2A2D",
"r  c #25242A",
"t  c #3D292E",
"y  c #312629",
"u  c #373425",
"i  c #252533",
"p  c #2E2635",
"a  c #252C35",
"s  c #2E2C35",
"d  c #23253C",
"f  c #2A253C",
"g  c #242C3C",
"h  c #2B2B3D",
"j  c #312430",
"k  c #392535",
"l  c #342B34",
"z  c #3C2A32",
"x  c #33253B",
"c  c #3A273A",
"v  c #322B3C",
"b  c #3A2A3A",
"n  c #23323D",
"m  c #2A323B",
"M  c #2C3033",
"N  c #31313B",
"B  c #363437",
"V  c #2C3427",
"C  c #46292E",
"Z  c #422430",
"A  c #1C2442",
"S  c #1D2B43",
"D  c #1D2B4A",
"F  c #122A4E",
"G  c #1E3241",
"H  c #1E3355",
"J  c #232543",
"K  c #2A2544",
"L  c #242B44",
"P  c #2A2B43",
"I  c #24264B",
"U  c #2A254B",
"Y  c #242B4A",
"T  c #2A2B4A",
"R  c #342641",
"E  c #3B2544",
"W  c #352A43",
"Q  c #31264A",
"!  c #312C4E",
"~  c #3A2E42",
"^  c #243244",
"/  c #2B3243",
"(  c #25324C",
")  c #2B324C",
"_  c #263B4B",
"`  c #33344C",
"'  c #303146",
"]  c #282652",
"[  c #252A51",
"{  c #2C2D50",
"}  c #312853",
"|  c #293352",
" . c #253050",
".. c #333151",
"X. c #353B55",
"o. c #3C3D5C",
"O. c #393F57",
"+. c #373C64",
"@. c #462F41",
"#. c #413B59",
"$. c #543B50",
"%. c #423C6A",
"&. c #3E454F",
"*. c #2E465A",
"=. c #3B4553",
"-. c #3D445C",
";. c #3A4A59",
":. c #37465A",
">. c #3C4463",
",. c #3C4B66",
"<. c #354463",
"1. c #4C474D",
"2. c #43435E",
"3. c #48445C",
"4. c #5C4355",
"5. c #544553",
"6. c #424462",
"7. c #4A4B6E",
"8. c #454B67",
"9. c #504E66",
"0. c #5B6C79",
"q. c #5D6478",
"w. c #60687F",
"e. c #646779",
"r. c #746E7C",
"t. c #BE7E12",
"y. c #BC7F22",
"u. c #D87D00",
"i. c #C37F12",
"p. c #BE831D",
"a. c #B98628",
"s. c #B38333",
"d. c #BA8036",
"f. c #D38400",
"g. c #DB8300",
"h. c #C5851A",
"j. c #EF9E0F",
"k. c #F69906",
"l. c #FB9B00",
"z. c #F69E0D",
"x. c #EF9F12",
"c. c #F99F13",
"v. c #DEB503",
"b. c #C7B418",
"n. c #EDA600",
"m. c #E5AC05",
"M. c #EDAC00",
"N. c #ECA90D",
"B. c #E1A708",
"V. c #FDA201",
"C. c #FFA50D",
"Z. c #F4A508",
"A. c #E8B105",
"S. c #E6A21B",
"D. c #EEA31B",
"F. c #E9A815",
"G. c #F2A210",
"H. c #FAA314",
"J. c #F0A919",
"K. c #CC8920",
"L. c #EF9F3C",
"P. c #D8AA27",
"I. c #D6B12C",
"U. c #DFA633",
"Y. c #CBA538",
"T. c #E5AA25",
"R. c #EDA936",
"E. c #FFE13D",
"W. c #AE8350",
"Q. c #BDA577",
"!. c #D9A542",
"~. c #C6A564",
"^. c #D5A66C",
"/. c #DAB378",
"(. c #FFDB54",
"). c #FFE44F",
"_. c #FFE652",
"`. c #FFE45C",
"'. c #FFE857",
"]. c #FFE568",
"[. c #FBF267",
"{. c #EEEC7F",
"}. c #FFE678",
"|. c #5D6887",
" X c #646584",
".X c #67698B",
"XX c #607288",
"oX c #6D6A95",
"OX c #8493AA",
"+X c #9098AF",
"@X c #939AB9",
"#X c #FAE88C",
"$X c #FFEC9F",
"%X c #FFFE93",
"&X c #FFFE9E",
"*X c #FFF4A5",
"=X c #FFF4AD",
"-X c #FFFEA8",
";X c #FFFDBB",
":X c #FFF8B5",
">X c #989DC5",
",X c #FFFEC7",
"<X c #FFFDD4",
"1X c #FFFCEA",
/* pixels */
"8 n n &.L T L Y [ <.^ 8 Y ,.J T I [ D 0 6 n -.Q R c z l v P d g ",
") 7 =.n L L J { o.w.0 8 >.[ U J U Y ( 8 0 2.d W R c z l h P L S ",
"L O.| S L T U U r.r m 8.S S ( Y L T 7 ^ ;.a s s v x v v h P P Y ",
"T J  .D L X.} Q 1.e d d _ 6 :.Y Y L J 6.P d s s v P P h g K Y T ",
"K ! J Y -.` J #.v s Y A 8 ;.( L / g 2.T K T s a h P f h K K L L ",
"U T Y -.g d 9.P P L Y | =.L A T d O.Q T U T n a L P P h K h g M ",
"T J >.Y 8 G ,.S L ^ Y o.| K K P T T P d ! K d ^ L L g g h L s M ",
"I { S G 0 0 D [ Y d #.T K P L T T J s v K T T L Y L g g g h M l ",
"U K d 6 n 8 D ] I 6.K P ^ L ( S J / 1.B K K 2.-.S ( L 6 h W s v ",
"d P m 6 6 ( D ]  Xd m g g m r V u w w e f ..L Y ( 8 8 n P h f P ",
"v a a n Y U %..XL / 6 0 g < o : o X u v e.6.U J d g s h U I P P ",
"7 / 8 L ] |.oXU L n 4 < o : }.].].#X  + i d U Q W v h h I [ T d ",
"H D ( | +.>XS S L h > : `.E.F.F.T.Y.,X1X@ m 3 @.$.c h L ( S L d ",
"F H Y >.>XD 8 ^ ( e - }.m.A.n.J.P.&X,XQ.<X  C $.@.x P A D 8 L P ",
"( L T #.J ( 9 q i - ].N.m.M.A.(.-X:X^.=X!.s.# k i g / 8 T L P L ",
"g d 3.f U L :.q s - _.m.n.N.`.%X,XW.=XL.x.h.* l / 8 n L o.T L g ",
"Y L h d I .XA ^ l ; _.m.m.(.-X;X^.$XR.c.k.h.% h g n 8 +XT U L L ",
"Y P / P  X,.Y L y : ).v.P.%X;X~.*Xh.c.l.H.h.. h g 5 @XL K T S ^ ",
"T D J  Xo.L ^ m s o [.b.&X:X#X&XU.f.l.l.H.p.$ P J 7.Y J h s n 9 ",
" .D I 7.J L g g a X {.%X-X~.%XI.S.u.V.l.z.p.  f U Y I T P 5 :.G ",
"S L >.2 ` L J g a X ,X;X/.*X`.B.j.u.C.l.z.p.- s ) A ^ S ^ 2.L L ",
"S ) >.Y d h T P a @ 1XQ.*XU.N.f.g.k.l.H.S.a.  h d | S Y >.Y I Y ",
"T X.L a s ^ d L ~ 3 + <XI.B.V.V.V.C.G.T.a.  y T P J ( ,.A >.[ [ ",
"J ` d n g n d ^ d h v   }.'.x.H.G.J.p.s.- u g I Y J >.L -.D [ ] ",
"W f L L L L L ^ Y 7 P l   * s.y.y.y.= # y a S Y L e.&.g 8 ^ d L ",
"f W Y ( S G S L Y ^ 8 8 9.j $ * * & Z E ^ G |.OX0.a a m n 5 ` f ",
"J ! d ^ S L m a L L 0.0.7 g e w y Z x 3 8 XX:.( L T L 8 d ^ f #.",
"T L 6 L ( D g s g |.0 ^ G D / a P P ` ( S ,.A { U L J T ) / 6.R ",
"^ d ^ g Y ) J L  XT T 7 J ` f / T L J 7 _ *.Y ] U R 5.l L ,.L h ",
"d ^ L 8 7 T T P P Y J T ` f v h J T T L *.D I Q R c z b 2.L g d ",
"L ^ L J ` g X.Y S |.) h f c 5.t g S S >.Y -.W j c 5.k R A ) h m ",
"P d Y ^ q.g 8.S |.D 7 / p k C t a L 6.] o.v j t t t c R T L d e "
};
