/* XPM */
static char *_1003_9fe14b42d058396a0198e7f4a3004752222a74a358512839ab3f8e163d673899[] = {
/* columns rows colors chars-per-pixel */
"32 32 186 2 ",
"   c #1F0D00",
".  c #1C0C0A",
"X  c #151104",
"o  c #1B1B00",
"O  c #191500",
"+  c #130B18",
"@  c #260A00",
"#  c #2B0B00",
"$  c #240700",
"%  c #310D00",
"&  c #231300",
"*  c #221A00",
"=  c #271408",
"-  c #1B2816",
";  c #32320C",
":  c #282C1D",
">  c #3A2D1C",
",  c #362813",
"<  c #32351A",
"1  c #201D3A",
"2  c #1C2236",
"3  c #15243A",
"4  c #1C253C",
"5  c #1C2C3B",
"6  c #1A2A3A",
"7  c #1D333E",
"8  c #272921",
"9  c #2F2820",
"0  c #24252C",
"q  c #2C242E",
"w  c #28292E",
"e  c #372A28",
"r  c #303328",
"t  c #222632",
"y  c #2B2636",
"u  c #242A35",
"i  c #2B2B35",
"p  c #24263C",
"a  c #2B263B",
"s  c #232B3D",
"d  c #2A2B3C",
"f  c #332634",
"g  c #3D2433",
"h  c #332A35",
"j  c #3B2A33",
"k  c #34263B",
"l  c #33293A",
"z  c #3B293A",
"x  c #23323D",
"c  c #2B313E",
"v  c #333236",
"b  c #30303A",
"n  c #403814",
"m  c #42282B",
"M  c #412E30",
"N  c #462839",
"B  c #3E4138",
"V  c #181E40",
"C  c #172740",
"Z  c #1E2543",
"A  c #1D2B44",
"S  c #1F2649",
"D  c #1E2D4A",
"F  c #162B45",
"G  c #18304C",
"H  c #1B3146",
"J  c #1F3250",
"K  c #232643",
"L  c #2B2443",
"P  c #242B44",
"I  c #2A2C43",
"U  c #25264A",
"Y  c #29274F",
"T  c #242B4B",
"R  c #2A2C4A",
"E  c #322C42",
"W  c #3A2B43",
"Q  c #312F4C",
"!  c #233145",
"~  c #2A3144",
"^  c #25324C",
"/  c #2A324A",
"(  c #303244",
")  c #33344C",
"_  c #3C3E4D",
"`  c #242D50",
"'  c #2C2C51",
"]  c #302952",
"[  c #263254",
"{  c #2C3453",
"}  c #3F3F57",
"|  c #353B59",
" . c #373C56",
".. c #383E60",
"X. c #5A394A",
"o. c #443E60",
"O. c #31434D",
"+. c #3A4557",
"@. c #36445A",
"#. c #3C445C",
"$. c #3B4954",
"%. c #364461",
"&. c #3C4463",
"*. c #3C4B63",
"=. c #375263",
"-. c #5A474C",
";. c #43445C",
":. c #424A5A",
">. c #544653",
",. c #5A4357",
"<. c #414364",
"1. c #454A62",
"2. c #4E4C64",
"3. c #47496B",
"4. c #514760",
"5. c #464B73",
"6. c #5D6D6A",
"7. c #566777",
"8. c #5B637C",
"9. c #576E78",
"0. c #B97D2C",
"q. c #B47D36",
"w. c #B88400",
"e. c #BB8B00",
"r. c #B88E20",
"t. c #B0842B",
"y. c #C39300",
"u. c #C68716",
"i. c #EA9B18",
"p. c #DAA607",
"a. c #E7A700",
"s. c #EDA202",
"d. c #ECAA0D",
"f. c #E7A908",
"g. c #F4A500",
"h. c #F3AB01",
"j. c #F6A708",
"k. c #EFB800",
"l. c #EAA719",
"z. c #F5A218",
"x. c #EFB611",
"c. c #F4A421",
"v. c #E4A033",
"b. c #E4A426",
"n. c #FFF01F",
"m. c #FFE922",
"M. c #FFE629",
"N. c #FFEC2A",
"B. c #FFE63C",
"V. c #A2805B",
"C. c #B98644",
"Z. c #958166",
"A. c #D6A846",
"S. c #C4A368",
"D. c #FFE746",
"F. c #FFE24A",
"G. c #FFE35C",
"H. c #FFE85E",
"J. c #FDEB63",
"K. c #FFE96C",
"L. c #FEE673",
"P. c #FFEC75",
"I. c #FFE87D",
"U. c #FFF071",
"Y. c #FFF07F",
"T. c #5C6381",
"R. c #5B6887",
"E. c #626A86",
"W. c #62678A",
"Q. c #646A8A",
"!. c #657188",
"~. c #656F92",
"^. c #8B9CAE",
"/. c #8E99B3",
"(. c #9A9BB0",
"). c #92A3B3",
"_. c #FFE487",
"`. c #FFFAAD",
"'. c #FFF5AB",
"]. c #FFF7B5",
"[. c #FFF8BD",
"{. c #FFF7C4",
"}. c #FFFDCE",
"|. c #FFF9DE",
" X c #FFFBE9",
".X c #FFF8E4",
/* pixels */
"t c s @.! T U T T %.T T Y <.6 H 5 T D P s I } I E k j e j a a P ",
"( 4 +.D ! P Z / +.R.P S <.T ! 5 P s ^ 5 I ;.p E l l j h h i I P ",
"I | [ A K / p I !.6 I 1.a K / T s I p R <.L E i h d l I I a U T ",
"R K / T P  .c i :.s K p ) a #.A I u s ;.R L a i i i I R P P T P ",
"K [ Z T #.) y +.d ~ P K I ;.~ s ~ 5 %.! A x ~ i d a I R U U I I ",
"R R ! +.P K 4.d I K T / ;.K s ~ K @.P P 5 x I a L I K U R L L l ",
"R 1 #.P K U 1.L P / T | / p I U ' ] L a / s I I E Y U P L i l l ",
"P R s x ! U U R T K %.! 6 P K R Y L l j y I R K R L Y R u i v h ",
"U L s 5 ! T U ` U #.A 7 x 6 R Y I 0 -.M y R %.%.P ! T Z i c i c ",
"K R ~ u A T S T E.4 ! 7 5 s b w : < n , d F [ F ! K 5 ~ ~ i u s ",
"R P s 7 x ! ..W.K / 3 ^ A u , * O *   < 6.=.G D s y P P I K I K ",
"L I s 6 H 7.~.T P ~ A 5 K r & P.U.L._.@ - 7 C R l z b K K U / K ",
"R P ~ ~ O.).S U I d I I l & K.p.p.l.b.t.& y l k X.N L P / K R U ",
"K R s +.^.A P Q a l a l e @ F.k.h.g.j.u.$ 9 g ,.N g I A P 4 P R ",
"' U I @.F [ 4 d z k >.>   Y.f.a.m.N.g.i.C.# j z 1 h ! F ! s I I ",
"U P #.P [ D #.i f >.f > * H.f.f.m.e.j.z.0.% e d I u H H @.~ s p ",
"T P d p F !.Z ~ h f d : o H.f.M.n.y.g.c.t.% k P I d K /.D D s s ",
"P ! I I E.*.T I i y I r o J.x.a.m.e.g.c.t.# h S K p (.s H D s I ",
"! Z K E.| T [ U E a R 8 o G.z.g.B.y.h.l.q.$ w ! L 2.s s D ^ P s ",
"! P P 3.K U A P K I P 8 o J.j.j.B.w.l.v.{.% 0 ! P K p ~ ! 3 #.I ",
"6 ! #.1 ) P K T ~ 2 / r * G.s.g.D.e.A.].{.@ v Z ^ 5 R p I :.P K ",
"H ~ ;.I s K ^ U R P R B * U.d.j.w.r.`.{.V.  d T 6 ^ s I #.P s I ",
"[ | d p I ~ U D T T | v X L.p.l.A.'.`.S. X+ P F H 6 x :.K &.P P ",
"U { a d s U S ` U ! ^ t ; o I.A.{.}.S.}.. L U ^ 7 s $.s <.R T 5 ",
"' S K s I P T P u u ! ! w : @ .X|.Z. XX f E K ^ 7 9.+.R U ] 4 A ",
"L R I ~ P T ! s u c ~ 4 1.) L + . = + t I R T./.9.6 s R R Z { A ",
"K R U T Z A s s P K W.R.P 5 P I i w a ) p 8.%.! s I s p L / 4 *.",
"R U U T ~ x s ! K W.U { Z 5 ~ s i b Q R S *.P s I L s I ~ ~ <.T ",
"P K P P s ~ u x E.^ K I d u u i i I 4 D U ..I t a k 4.a a ;.P P ",
"s ~ ~ s 2 c ! P S S T I y h v i s L ` ` 5.U I i f k W W ;.K s s ",
"P ! s 4 ) P  .T ` ~.K a a z -.e c K T &.C &.I l j >.k k a ~ a ~ ",
"^ C s ~ 8.U 5.D R.S P I W g m j i S o.Y 1.K I k g m z z a p I i "
};
