/* XPM */
static char *_3399_f58a6a6f0988caa4ceb98529ae1ad9822f690c007c44f34dd8cc03a9616e1491[] = {
/* columns rows colors chars-per-pixel */
"32 32 248 2 ",
"   c #3C2332",
".  c #3D2432",
"X  c #3E2433",
"o  c #412632",
"O  c #412633",
"+  c #442632",
"@  c #402534",
"#  c #4C2A33",
"$  c #4C2A35",
"%  c #4C2B35",
"&  c #4E2A35",
"*  c #4F2B35",
"=  c #4F2C36",
"-  c #512C31",
";  c #572E32",
":  c #572F32",
">  c #512D35",
",  c #522E35",
"<  c #532E35",
"1  c #512D36",
"2  c #522E36",
"3  c #542E35",
"4  c #542F35",
"5  c #552F35",
"6  c #582F33",
"7  c #582F36",
"8  c #592F37",
"9  c #573334",
"0  c #573036",
"q  c #563037",
"w  c #573037",
"e  c #593033",
"r  c #5D3332",
"t  c #5D3432",
"y  c #583036",
"u  c #5A3136",
"i  c #5B3237",
"p  c #5C3237",
"a  c #5D3337",
"s  c #5F3337",
"d  c #593434",
"f  c #5B3634",
"g  c #5C3734",
"h  c #553836",
"j  c #563038",
"k  c #5B3238",
"l  c #5C3238",
"z  c #60312E",
"x  c #66362F",
"c  c #69372F",
"v  c #743B2D",
"b  c #623030",
"n  c #673736",
"m  c #6F3330",
"M  c #613935",
"N  c #6F3930",
"B  c #683836",
"V  c #663539",
"C  c #653638",
"Z  c #673739",
"A  c #66363A",
"S  c #683839",
"D  c #693839",
"F  c #6A3939",
"G  c #69383A",
"H  c #6D393B",
"J  c #6D3A3A",
"K  c #6E3B3A",
"L  c #6F3B3A",
"P  c #6F3A3B",
"I  c #6E3B3B",
"U  c #723731",
"Y  c #763D31",
"T  c #773E31",
"R  c #703A3B",
"E  c #713B3B",
"W  c #703C3A",
"Q  c #713C3B",
"!  c #723C3B",
"~  c #723D3B",
"^  c #733D3B",
"/  c #743D3B",
"(  c #743E3B",
")  c #753E3B",
"_  c #713B3C",
"`  c #703C3C",
"'  c #723C3C",
"]  c #704038",
"[  c #774339",
"{  c #7B453A",
"}  c #7F473A",
"|  c #884634",
" . c #894634",
".. c #924A36",
"X. c #BD432E",
"o. c #BE452F",
"O. c #BF462F",
"+. c #A65229",
"@. c #A75229",
"#. c #A75329",
"$. c #A85329",
"%. c #BA5B27",
"&. c #A84030",
"*. c #AA4130",
"=. c #AB4130",
"-. c #BC4430",
";. c #BD4430",
":. c #BD4530",
">. c #BE4630",
",. c #BE4730",
"<. c #BF4830",
"1. c #BF4930",
"2. c #A95330",
"3. c #976433",
"4. c #A66D33",
"5. c #A16834",
"6. c #A66D34",
"7. c #A86C36",
"8. c #AC6E37",
"9. c #AE6E37",
"0. c #AE6F37",
"q. c #AF6D3C",
"w. c #B26F37",
"e. c #B27038",
"r. c #B37138",
"t. c #B47238",
"y. c #BF7E39",
"u. c #C1482E",
"i. c #CC5B2F",
"p. c #CC5D31",
"a. c #CD5E31",
"s. c #CD5F31",
"d. c #CD5D32",
"f. c #DD6B2E",
"g. c #CD6335",
"h. c #CC6B3C",
"j. c #CE6F3D",
"k. c #D16431",
"l. c #D26531",
"z. c #CE723E",
"x. c #D87C3C",
"c. c #E87B27",
"v. c #E97B27",
"b. c #E7792B",
"n. c #E77C2C",
"m. c #EA7D28",
"M. c #EB7D29",
"N. c #F67422",
"B. c #F67622",
"V. c #F77622",
"C. c #F77923",
"Z. c #FB7B23",
"A. c #FC7822",
"S. c #FD7A22",
"D. c #FD7B22",
"F. c #FD7B23",
"G. c #E57F38",
"H. c #E57F39",
"J. c #8A5B42",
"K. c #DB8132",
"L. c #EA862F",
"P. c #F28026",
"I. c #F88226",
"U. c #F88327",
"Y. c #F28528",
"T. c #F6872D",
"R. c #F88528",
"E. c #F88629",
"W. c #F98929",
"Q. c #F9892A",
"!. c #F8892B",
"~. c #F88B2D",
"^. c #F88C2D",
"/. c #F88C2E",
"(. c #FB982D",
"). c #FB992E",
"_. c #E38333",
"`. c #E68130",
"'. c #E38433",
"]. c #E48433",
"[. c #E48734",
"{. c #E98B33",
"}. c #E98C33",
"|. c #E98D33",
" X c #E88E36",
".X c #F58C31",
"XX c #F68C31",
"oX c #F58D32",
"OX c #F98F30",
"+X c #F99030",
"@X c #F99031",
"#X c #F99131",
"$X c #FC9230",
"%X c #FA9533",
"&X c #F99634",
"*X c #F6A733",
"=X c #F0A535",
"-X c #F1A535",
";X c #F0A635",
":X c #F3A735",
">X c #F3A736",
",X c #F4A735",
"<X c #F4A736",
"1X c #FCA632",
"2X c #FCA733",
"3X c #FFA334",
"4X c #FDAA33",
"5X c #FDAB33",
"6X c #FDAD34",
"7X c #FDAD35",
"8X c #FDAE35",
"9X c #FDAF35",
"0X c #FFAF34",
"qX c #FFB034",
"wX c #FFB135",
"eX c #FFB336",
"rX c #FDB53B",
"tX c #FFB73A",
"yX c #FDB83D",
"uX c #FFBB3C",
"iX c #FDBB3F",
"pX c #BBA14F",
"aX c #D88341",
"sX c #CAA94E",
"dX c #C2AA52",
"fX c #E9A94A",
"gX c #EDB54D",
"hX c #FBB744",
"jX c #FABD49",
"kX c #EEBE54",
"lX c #FFC242",
"zX c #FDC446",
"xX c #FFC846",
"cX c #FFC947",
"vX c #FFCA48",
"bX c #FFCD4C",
"nX c #FDCF4E",
"mX c #FECE4E",
"MX c #FDD04F",
"NX c #FED14F",
"BX c #FFD24E",
"VX c #FACD53",
"CX c #FDCC51",
"ZX c #FED150",
"AX c #FFD550",
"SX c #FFD651",
"DX c #FEDA57",
"FX c None",
/* pixels */
"FXFXFXFXFXFXFXFXFXFXFXFXFXFXFXFXFXFXFXFXFXFXFXFXFXFXFXFXFXFXFXFX",
"FXFXFXFXFXFXFXFXFXFXFXFXFXFXFXV.V.FXFXFXFXFXFXFXFXFXFXFXFXFXFXFX",
"FXFXFXFXFXFXFXFXFXFXFXFXFXFXFXV.V.FXFXFXFXFXFXFXFXFXFXFXFXFXFXFX",
"FXFXFXFXFXFXFXFXFXFXFXFXFXFXFXV.V.FXFXFXFXFXFXFXFXFXFXFXFXFXFXFX",
"FXFXFXFXFXFXFX1X1X1X1X1X1X2X).V.V.).2X1X1X1X1X1X1XFXFXFXFXFXFXFX",
"FXFXFXFXFXFXFXC.Z.D.D.D.D.F.S.A.A.S.F.D.D.D.D.Z.C.FXFXFXFXFXFXFX",
"FXFXFXFXFXFXFXV.%.+.#.$.$.#.#.#.$.#.$.$.$.#.@.%.V.FXFXFXFXFXFXFX",
"FXFXFXFXFXFXFXB.c j 1 . X q l = . 2 O   % k @ x B.FXFXFXFXFXFXFX",
"FXFXFXFXFXFXFXB. .' W S D ^ ) W S Q F S K ( G | B.FXFXFXFXFXFXFX",
"FXFXFXFXFXFXFXB. .G ^ / J F W D F D D J / ^ G  .B.FXFXFXFXFXFXFX",
"FXFXFXFXFXFXFXB.T w / ) s 0 F 5 5 5 3 a ( / w T B.FXFXFXFXFXFXFX",
"FXFXFXFXFXFXFXB...I u u i Q J y 7 7 s ( Z u I ..B.FXFXFXFXFXFXFX",
"FXFXFXFXFXFXFXB.Y $ + + o % N y.dXpXh > # + $ Y B.FXFXFXFXFXFXFX",
"FXFXFXFXFXFXFXN.v b &.=.m z K.bX3X$XsXU *.&.b v N.FXFXFXFXFXFXFX",
"FXFXFXFXFXFXFXFXY.M.l.k.b.P.%XNX4XQ.CXn.k.l.M.Y.FXFXFXFXFXFXFXFX",
"FXFXFXFXFXFXFX8X|._.].].'.`.&XNX5XW.VX[.].]._.|.8XFXFXFXFXFXFXFX",
"FXFXFXFXFXFXFX7Xp.-.:.:.:.O.f.hXNXjXaX,.:.:.-.p.7XFXFXFXFXFXFXFX",
"FXFXFXFXFXFXFX7Xs.>.<.<.<.<.u.d.z.j.1.<.<.<.>.s.7XFXFXFXFXFXFXFX",
"FXFXFXFXFXFXFX6Xa.>.<.<.<.<.<.>.o.o.<.<.<.<.>.s.7XFXFXFXFXFXFXFX",
"FXFXFXFXFXFXFXyXg.>.<.<.<.<.<.<.<.<.<.<.<.<.>.a.rXFXFXFXFXFXFXFX",
"FXFXFXFXFXFXFXMXh.X.>.>.>.>.>.>.>.>.>.>.>.>.;.i.zXFXFXFXFXFXFXFX",
"FXFXFXFXFXFXFXnXkXfX}.{.{.{.{.{.{.{.{.{.{.{. XgXDXFXFXFXFXFXFXFX",
"FXFXFXFXFXFXFXT.oXL.c.c.v.c.c.c.c.c.c.v.c.c.m..XXXFXFXFXFXFXFXFX",
"FXFXFXFXFXFXFXH.x.r 6 e - : e ; ; e : - e 6 t x.G.FXFXFXFXFXFXFX",
"FXFXFXFXFXFXFX(.;Xf Q ^ , F E J.J.E D > ^ Q g ;X(.FXFXFXFXFXFXFX",
"FXFXFXFXFXFXFX(.>X] ! / < F R q.q.P L C ^ Q g ;X(.FXFXFXFXFXFXFX",
"FXFXFXFXFXFXFX1X<X} ^ / 4 F ` 2.2.` J p / ~ [ :X1XFXFXFXFXFXFXFX",
"FXFXFXFXFXFXFX9X-XM ! ^ F Q ( B n ( F , / ~ { ,X9XFXFXFXFXFXFXFX",
"FXFXFXFXFXFXFX6X=X9 H R * A H * 8 _ V & R H d =X6XFXFXFXFXFXFXFX",
"FXFXFXFXFXFXFXiX*X4.e.r.5.9.8.3.7.t.0.5.r.w.6.*XiXFXFXFXFXFXFXFX",
"FXFXFXFXFXFXFXDXZXSXcX0XvXBXeXwXwXqXtXxXlXAXuXmXDXFXFXFXFXFXFXFX",
"FXFXFXFXFXFXFX@X#X#X^.I./.OXU.I.I.I.R.~.!.#XE.+X@XFXFXFXFXFXFXFX"
};
