/* XPM */
static char *_e5a467f6fe64d36d42386fb29108bd1jjYj0vKMYOXbSZXB[] = {
/* columns rows colors chars-per-pixel */
"32 32 139 2 ",
"   c #1C2137",
".  c #1D243D",
"X  c #1E2A3F",
"o  c #252235",
"O  c #2C2435",
"+  c #262837",
"@  c #23263C",
"#  c #2A263B",
"$  c #24293D",
"%  c #2B2A3E",
"&  c #332535",
"*  c #362A36",
"=  c #392936",
"-  c #332739",
";  c #3D273A",
":  c #33293B",
">  c #39293B",
",  c #2E303F",
"<  c #1D2641",
"1  c #1E2A44",
"2  c #1A3048",
"3  c #222741",
"4  c #242B44",
"5  c #2A2C43",
"6  c #252D49",
"7  c #292E49",
"8  c #312E43",
"9  c #312E42",
"0  c #342C43",
"q  c #312F44",
"w  c #312D46",
"e  c #342C44",
"r  c #322D42",
"t  c #382F42",
"y  c #273244",
"u  c #253046",
"i  c #263145",
"p  c #283142",
"a  c #283043",
"s  c #283047",
"d  c #2D3246",
"f  c #2A3046",
"g  c #273248",
"h  c #27314A",
"j  c #26314B",
"k  c #293148",
"l  c #2A3048",
"z  c #2A314B",
"x  c #2B314B",
"c  c #2C3049",
"v  c #2D3349",
"b  c #2C324A",
"n  c #2C344B",
"m  c #2B324C",
"M  c #2D334D",
"N  c #2C314E",
"B  c #2C324B",
"V  c #343144",
"C  c #323145",
"Z  c #3E3041",
"A  c #31354E",
"S  c #32324A",
"D  c #3B3348",
"F  c #2C3550",
"G  c #313751",
"H  c #313552",
"J  c #353B53",
"K  c #373D55",
"L  c #343954",
"P  c #363B58",
"I  c #363B58",
"U  c #393D58",
"Y  c #383F5B",
"T  c #3E3E5A",
"R  c #393E5A",
"E  c #344056",
"W  c #3C4157",
"Q  c #37475E",
"!  c #394158",
"~  c #39405A",
"^  c #3B435A",
"/  c #3A4559",
"(  c #3C4459",
")  c #3C445B",
"_  c #3F435C",
"`  c #3C415E",
"'  c #3B465C",
"]  c #3C435D",
"[  c #3A495E",
"{  c #3C495C",
"}  c #3E4360",
"|  c #3D4561",
" . c #3E4863",
".. c #464155",
"X. c #484057",
"o. c #41435C",
"O. c #40445D",
"+. c #41455E",
"@. c #40465E",
"#. c #41445B",
"$. c #514352",
"%. c #50465E",
"&. c #554758",
"*. c #52495C",
"=. c #514859",
"-. c #404660",
";. c #414663",
":. c #414663",
">. c #424860",
",. c #424A61",
"<. c #414862",
"1. c #434963",
"2. c #454D66",
"3. c #474E68",
"4. c #494D68",
"5. c #534C62",
"6. c #555267",
"7. c #5C637D",
"8. c #5B637D",
"9. c #5D697F",
"0. c #62677B",
"q. c #60687F",
"w. c #60687F",
"e. c #5E6681",
"r. c #5E6C83",
"t. c #606781",
"y. c #606781",
"u. c #626A81",
"i. c #616A83",
"p. c #626D89",
"a. c #657084",
"s. c #687087",
"d. c #64708A",
"f. c #6A7088",
"g. c #8995AF",
"h. c #9097B1",
"j. c #949AB4",
"k. c #949EBA",
"l. c #999FB9",
/* pixels */
"X 7 4 ( 4 5 4 4 4 ^ 7 4 4 @.X 6 1 4 4 6 4 7 ! % : * ; ; - 3 6 2 ",
"v X / a i 4 . i U w.3 $ ( i 5 4 4 1 7 X 5 @.@ % : * > > 0 # 6 1 ",
"3 K b 3 $ v 4 4 f.. 7 :.4 4 h 4 4 7 . h ( $ r % r : 0 : % $ 3 4 ",
"7 @ 7 4 5 J f 4 :.4 4 3 G 4 U 4 7 4 4 / p $ # : r % 5 3 % % % % ",
"3 7 @ 4 ] A 3 U 7 4 7 3 4 :.6 4 7 3 T 5 @ % % % 5 5 4 4 4 $ % - ",
"5 5 5 o.5 < 3.7 7 3 4 7 ` 6 3 7 3 T 5 5 + % % $ 5 4 6 4 $ % : * ",
"7 . o.5 3 4 @.4 3 7 6 I N 3 5 6 7 w 5 # V # $ a 3 4 4 5 % % % : ",
"3 7 3 4 7 4 4 4 7 < } 7 3 6 4 7 5 # - e # 5 p $ 1 4 3 5 % % % % ",
"5 4 4 3 7 4 4 4 4 ;.3 7 4 X 5 3 5 # 5.e @ 4 ] ] 1 y $ + % r 5 5 ",
"@ 6 7 3 3 7 X 3 y.< 7 X 4 4 j 3 # - r # 5 z 6 3 a $ + % r % $ 5 ",
"h 1 1 6 6 7 ^ u.4 4 4 v 4 @ X 5 &.: 5 5 t.U 7 3 @ $ % , % 3 5 4 ",
". 6 4 1 4 7.f.3 @ $ 7 $ @ d 5 # : : # 3 3 4 5 e C % , + @ 4 N 3 ",
"z 4 6 F R l.@ 3 f 3 3 % @ % % d 5 % % 0.@ S % O X.% # 3 7 4 5 3 ",
"< 6 4 ` h.4 3 w $ % # r C C O $ p 7.( 5 # # 0 *.D % p @ 4 @ 4 7 ",
"7 6 7 ` 3 N @ 5 5 5 6.r o O : % 1 Q $ V & > * - o % 7 3 7 3 7 7 ",
"6 3 :.3 7 4 T 5 % 5.# # r 5 % $ Q r.f O * Z O % 5 $ 4 6 T 7 3 3 ",
"4 4 6 1 X a.. i w 5 @ w @ 3 v 1 i.5 $ 5 % : o % 4 % 4 h.4 4 3 5 ",
"4 6 h p 9.{ p 4 3 5 w @ z 5 < k.8.v 5 4 $ % @ , $ X j.1 4 7 3 5 ",
"5 1 X 9.E 1 g % 5 5   v 3 6 g.i.M @ $ @ $ 5 $ 4 1 2.4 4 4 6 7 @ ",
"b 4 X 2.X 4 X $   7 4 4 5 8.d.1 @ 5 5 5 5 5 4 3 6 1 . j 7 . o.4 ",
"X 5 ]   n 4 X 6 S 3 4 4 e.e.2 1 3 S $ 3 5 3 6 6 j < j 1 7 | 7 $ ",
"@ 7 ] 7 X 6 i 5 3 4 3 3.j < 6 6 @ % @ $ 4 4 6 2 < F 1 6 ] 4 3 4 ",
"7 J 4 3 7 7 4 4 z 6 | < < m < i % % 5 p f 6 < 1 2 < j | X ] 4 4 ",
"@ S @ 7 3 6 < 6 4 3 j 6 6 1 6 $ % $ 5 4 4 6 2 6 6 2 | 4 ] 6 i $ ",
"S @ 5 @ 7 4 6 6 6 j < 1 h 4 6 4 @ r 4 7 6 1 6 1 6 e.@.7 $ 7 . 4 ",
"@ 7 3 v 4 4 6 4 1 . j 1 / 5   5 # 5 3 4 1 6 e.k.y.3 3 5 4 . G 4 ",
"@ f 4 7 3 4 6 3 j 7 i.q.$ $ 5 % 5 % 7 < 6 p.} < 3 5 # @ # f X ] ",
"7 $ @ 3 7 4 6 6 1 9.. $ 5 # C # o d < 6 6 ` 3 7 5 % # : d f ] 6 ",
"4 3 7 3 7 N 3 3 e.1 n 4 @ : O 0 5 @ 7 G . } 4 5 # : &.# # #.5 6 ",
"3 7 7 3 . N N 3 5 f X @ r : O t % 4 < < } 6 7 # : : * : ..$ 4 1 ",
"3 p 3 3 H 3 I 6 4 9.v # o * &.: 5 7 7 | 6 Y 5 5 : $.& * O e 4 6 ",
"i . 3 N e.6 4.3 e.a @ $ V % ; : 3 1 | 6 } 3 w : > = * * : @ 6 1 "
};
