/* XPM */
static char *_05e44e2261a4af38c189484040c1d47fScWbqG82xGQv3Mx[] = {
/* columns rows colors chars-per-pixel */
"32 32 11 1 ",
"  c None",
". c #5B3919",
"X c #5B5B5B",
"o c gray46",
"O c #CF2424",
"+ c #975F29",
"@ c #D4B21F",
"# c #939393",
"$ c #BEB5A7",
"% c #EEC39A",
"& c #DCD5CB",
/* pixels */
"              OOOO              ",
"             OOOO               ",
"             OOoo               ",
"            OOo###              ",
"            OO#oooo             ",
"            O oX#X              ",
"             oo#X#o             ",
"              #X#X              ",
"              %##%              ",
"             $%%%%%    @        ",
"            &&%%%%%% @@@        ",
"            $$%%%@@@@OO@        ",
"           &&&%%%@OOOOO@        ",
"           $&$%%%@OOOO@@        ",
"          &&$%%%%@OO@OO@        ",
"          $$ %%%%@O@OOO@        ",
"          && ++++@O@OOO@        ",
"           $&++++@OOooo#        ",
"           &$&&&&ooo###@        ",
"            %%.oo###@o@@        ",
"           .%%.##@O@OOO@        ",
"           .&&&&&@O@OO@@        ",
"            %%&&&@OO@OO@        ",
"            %%   @OOOOO@        ",
"           %%    @OOOOO@        ",
"           %%    @OOO@@         ",
"           ++    @@@@           ",
"           %        #           ",
"           +        #           ",
"          +%        &+          ",
"         +++        +++         ",
"                                "
};
