/* XPM */
static char *result[] = {
/* columns rows colors chars-per-pixel */
"32 32 4 1 ",
"  c #733D3B",
". c #B9704F",
"X c #EBD4AB",
"o c #000000",
/* pixels */
"oooooooooooooooooooooooooooooooo",
"oooooooooooooooooooooooooooooooo",
"oooooooooooooooooooooooooooooooo",
"ooooooooooooooo...oooooooooooooo",
"ooooooooooooo..XXX..oooooooooooo",
"ooooooooooo..XXXXXXX..oooooooooo",
"oooooooooo.XXXXXXXXXXX.ooooooooo",
"ooooooooo.XXXXXXXXXXXXX.oooooooo",
"ooooooooo.XXXXXXXXXXXXX.oooooooo",
"ooooooooo.XXXXXXXXXXXXX.oooooooo",
"oooooooo.XX.XXXXXXXXX.XX.ooooooo",
"oooooooo.XX.XXXXXXXXX.XX.ooooooo",
"oooooooo.X.XXXXXXXXXXX.X.ooooooo",
"oooooooo.XXX   XXX   XXX.ooooooo",
"oooooooo.XX    XXX    XX.ooooooo",
"oooooooo.XX    X X    XX.ooooooo",
"ooooooooo.X   XX XX   X.oooooooo",
"oooooooo.XXXXXX   XXXXXX.ooooooo",
"ooooooooo.XXXXX X XXXXX.oooooooo",
"oooooooooo...XXXXXXX...ooooooooo",
"oooooooooo.X.XXXXXXX.X.ooooooooo",
"oooooooooo.X.XXXXXXX.X.ooooooooo",
"oooooooooo.XX..XXX..XX.ooooooooo",
"oooooooooo.X.XX...XX.X.ooooooooo",
"ooooooooooo.XX.XXX.XX.oooooooooo",
"oooooooooooo.XXXXXXX.ooooooooooo",
"oooooooooooo.XXXXXXX.ooooooooooo",
"ooooooooooooo.XXXXX.oooooooooooo",
"oooooooooooooo.....ooooooooooooo",
"oooooooooooooooooooooooooooooooo",
"oooooooooooooooooooooooooooooooo",
"oooooooooooooooooooooooooooooooo"
};
