/* XPM */
static char *_41fa915dfdd409e8ba74f0c369202b0QKhhWDJwBYuafdrf[] = {
/* columns rows colors chars-per-pixel */
"32 32 11 1 ",
"  c None",
". c black",
"X c #222222",
"o c #323234",
"O c #400000",
"+ c #5C0000",
"@ c #444444",
"# c #545456",
"$ c #646466",
"% c #AD0000",
"& c red",
/* pixels */
"                                ",
"              XXXXX             ",
"            XXoooooXX           ",
"           Xoo@@@@@ooX          ",
"          Xo@@@###@@@oX         ",
"         Xo@@##$$$##@@oX        ",
"        Xo@@##$$$$$##@@oX       ",
"        Xo@###@@@@@###@oX       ",
"       Xo@#@@@ooooo@@@#@oX      ",
"       X@@@ooXXXXXXXoo@@@X      ",
"      Xo@ooX.........Xoo@oX     ",
"      X@ooX+++O...O+++Xoo@X     ",
"     XoooX+%&%+OOO+%&%+XoooX    ",
"     Xooo.+%&&%OOO%&&%+.oooX    ",
"    oo@oX.O+%%+OOO+%%+O.Xo@oo   ",
"    o@ooX..O++OO.OO++O..Xoo@o   ",
"   o@@oXXX..OOO...OOO..XXXo@@o  ",
"   @@@@XoXX...........XXoX@@@@  ",
"  o@o@@oooXXX.......XXXooo@@o@o ",
"  @o@#@oooXooXXXXXXXooXooo@#@o@ ",
"   @##@o@oooooXoooXooooo@o@##@  ",
"   @##@@@oooo@ooooo@oooo@@@##@  ",
"   #@#@@#@o@o@@ooo@@o@o@#@@#@#  ",
"   # #@##@@@@#@@@@@#@@@@##@# #  ",
"     #####@#@##@@@##@#@#####    ",
"     #####@#####@#####@#####    ",
"      ## ############### ##     ",
"      #  ###############  #     ",
"          ## ####### ##         ",
"           #  #####  #          ",
"               ###              ",
"                                "
};
